<?xml version="1.0" encoding="utf-8"?>
<!-- Generator: Adobe Illustrator 21.0.2, SVG Export Plug-In . SVG Version: 6.00 Build 0)  -->
<svg version="1.1" xmlns="http://www.w3.org/2000/svg" xmlns:xlink="http://www.w3.org/1999/xlink" x="0px" y="0px"
	 viewBox="0 0 306.1 215.5" style="enable-background:new 0 0 306.1 215.5;" xml:space="preserve">
<style type="text/css">
	.st0{fill:#115FAF;}
</style>
<g id="Layer_2">
	<g>
		<path class="st0" d="M153.3,215.5c-0.1,0-0.3,0-0.4,0c-40.5-0.1-78.7-11.1-107.4-31.1C16.1,163.9-0.1,136.6,0,107.5
			C0.1,78.3,16.3,51,45.7,30.7C74.4,10.9,112.5,0,152.8,0c0.1,0,0.3,0,0.4,0c40.5,0.1,78.7,11.1,107.4,31.1
			c29.4,20.4,45.5,47.7,45.4,76.9s-16.3,56.4-45.7,76.7C231.7,204.6,193.6,215.5,153.3,215.5z M152.8,11C74.7,11,11.1,54.2,11,107.5
			c0,25.4,14.4,49.5,40.7,67.8c26.9,18.7,62.8,29.1,101.1,29.1c0.1,0,0.3,0,0.4,0c78.1,0,141.7-43.2,141.8-96.4l0,0
			c0-25.4-14.4-49.5-40.7-67.8C227.4,21.5,191.5,11.1,153.2,11C153.1,11,153,11,152.8,11z"/>
	</g>
</g>
<g id="Layer_3">
	<g>
		<path class="st0" d="M60.4,56.4h21.2v54.7c0,8.7,0.3,14.3,0.8,16.9c0.9,4.1,3.1,7.4,6.5,9.9c3.4,2.5,8.1,3.8,14,3.8
			c6,0,10.5-1.2,13.6-3.5c3.1-2.4,4.9-5.3,5.5-8.7c0.6-3.4,0.9-9.2,0.9-17.1V56.4h21.2v53c0,12.1-0.6,20.7-1.7,25.7
			c-1.1,5-3.3,9.2-6.3,12.7c-3.1,3.4-7.2,6.2-12.4,8.2s-11.9,3.1-20.2,3.1c-10,0-17.6-1.1-22.8-3.3c-5.2-2.2-9.3-5.1-12.3-8.7
			c-3-3.6-5-7.3-5.9-11.2c-1.4-5.8-2.1-14.3-2.1-25.6V56.4z"/>
		<path class="st0" d="M254.8,157.3h-23.1l-9.2-22.9h-42l-8.7,22.9h-22.5l40.9-100.9h22.4L254.8,157.3z M215.7,117.4L201.3,80
			l-14.2,37.5H215.7z"/>
	</g>
</g>
</svg>
