<?xml version="1.0" encoding="utf-8"?>
<!-- Generator: Adobe Illustrator 21.0.2, SVG Export Plug-In . SVG Version: 6.00 Build 0)  -->
<svg version="1.1" id="Layer_1" xmlns="http://www.w3.org/2000/svg" xmlns:xlink="http://www.w3.org/1999/xlink" x="0px" y="0px"
	 viewBox="0 0 796.5 838" style="enable-background:new 0 0 796.5 838;" xml:space="preserve">
<style type="text/css">
	.st0{fill:#FFFFFF;}
</style>
<g>
	<path class="st0" d="M321.1,477.7l19.5-1.3v22.7c0,16.6-3.4,30.1-10.4,40.7c-7,10.7-16.6,16.7-28.7,17.8
		c-17.5,1.6-26.5-8.8-26.5-31.4c0-15.8,3.9-27.6,11.8-35.5C294.5,483,306,478.7,321.1,477.7z"/>
	<path class="st0" d="M377.5,0C216.6,0,76.9,90.7,6.7,223.8c9.6-9,20.1-16.4,31.6-22.1c27.7-13.7,58.7-16.4,92.4-9
		c32.6,7.1,63.6,23.6,93.2,48.7L203.4,308c-11.5-8.9-23.3-17-35.5-24.3c-12.4-7.5-24.8-12.3-37.2-14.2c-28.1-4.4-50.8,5.7-67.4,30.7
		c-17,25.8-25.7,64-25.7,114.1c0,104.4,32.6,153.8,93.1,148.7c23.7-2,51.2-11.6,82-28.3v72.2c-25.2,17.4-54.6,28.8-88.9,33.8
		C73.5,648.2,31.5,635.4,0,601c67.7,140.3,211.3,237,377.5,237c231.4,0,419-187.6,419-419C796.5,187.6,608.9,0,377.5,0z
		 M387.3,597.4l-32.4,4.6l-9.4-35.9l-1.3,0.1c-8.3,16.9-17,29.1-26.1,36.6c-9.3,7.6-21.6,12.6-37.2,14.9c-19.8,2.9-35.9-3-48-18
		c-12.3-15.4-18.6-38.9-18.6-70.3c0-32.9,8.4-57.2,24.9-72.6c16-15,39.3-22.8,68.9-23.5l32.4-0.6v-12.1c0-27.9-9.5-42.6-29-44.2
		c-15.5-1.2-34.3,4.3-56.8,17.1l-19.6-57.2c24.8-15.1,51-20.5,78.4-16.8c25,3.4,43.3,13.8,55.6,31c12.1,16.8,18,40.7,18,72.1V597.4z
		 M493.7,405.8c-2.9-1.6-6.4-2.5-10.6-2.8c-11.8-0.8-21.2,4-28,14.5c-6.9,10.7-10.5,26-10.5,45.9v125.8l-41.5,5.9V336.7l31.8,4.1
		l6,42.5l1.9,0.2c4.5-13.4,10.5-23.9,18-31.4c7.3-7.4,15.2-10.4,23.5-9.3c4.9,0.7,8.9,1.8,12.1,3.5L493.7,405.8z M533.2,576.7
		l-34.2,4.8V277.8l34.2,7.3V576.7z M641,528.2c-11.1,23.6-27.8,37.2-50.8,40.5l-40,5.7V288.7l44.1,9.4c21.1,4.5,36.6,18.9,47.3,42.8
		c10.4,23.2,15.5,53.8,15.5,92C657,473.8,651.8,505.3,641,528.2z M595.7,345.3l-15.2-2.3v178.9l12.3-1c26.3-2.1,38.7-31.2,38.7-87.5
		C631.5,378.3,620,349,595.7,345.3z"/>
</g>
</svg>
